<svg id="Capa_1" data-name="Capa 1" xmlns="http://www.w3.org/2000/svg" viewBox="0 0 368.5 95.19"><defs><style>.cls-1{fill:#201d19;}.cls-2{fill:#d7282f;}.cls-3{fill:#1d1d1d;}.cls-3,.cls-4{fill-rule:evenodd;}.cls-4{fill:#fff;}</style></defs><path class="cls-1" d="M204.58,97.87c0-2.37,1.19-4.28,3.39-4.28s3.4,1.91,3.4,4.28-1.19,4.28-3.4,4.28-3.39-1.91-3.39-4.28m-1.39,0c0,2.79,1.47,5.36,4.78,5.36s4.79-2.57,4.79-5.36-1.47-5.36-4.79-5.36-4.78,2.57-4.78,5.36m-3.75,0c0,2-.63,4.28-3,4.28-2.25,0-3-2.41-3-4.28s.78-4.28,3-4.28c2.41,0,3,2.29,3,4.28m-7.33,9.34h1.26v-6h0a3.18,3.18,0,0,0,3.2,2c2.81,0,4.21-2.33,4.21-5.36s-1.2-5.36-4.21-5.36a3.54,3.54,0,0,0-3.28,2.11h0l.08-1.87h-1.26ZM188.55,103v-7a3.12,3.12,0,0,0-3.23-3.43A3.45,3.45,0,0,0,182,94.68h0a2.57,2.57,0,0,0-2.71-2.17,3.2,3.2,0,0,0-3.19,2l0,0V92.75h-1.23c.08.82.08,1.63.08,2.41V103h1.27V97.33c0-2.55,1.36-3.74,2.75-3.74,1.63,0,2.17,1.15,2.17,2.59V103h1.26V97.33c0-2.55,1.37-3.74,2.76-3.74,1.62,0,2.17,1.15,2.17,2.59V103Zm-23.64-5.84c0-1.69,1.14-3.56,3-3.56s2.61,1.77,2.61,3.56Zm6.25,4.24a6.65,6.65,0,0,1-2.88.76c-2.21,0-3.37-1.75-3.37-3.92h7v-.64c0-2.75-1.19-5.08-4.08-5.08-2.59,0-4.32,2.23-4.32,5.36s1.27,5.36,4.66,5.36a8.47,8.47,0,0,0,3-.56ZM160.51,88.33h-1.27V90h1.27ZM159.24,103h1.27V92.75h-1.27Zm-2.85-10.24h-2.33V89.84l-1.26.44v2.47h-2v1.08h2v6c0,1.87.08,3.41,2.33,3.41a4.6,4.6,0,0,0,1.54-.28l-.08-1a2.92,2.92,0,0,1-1.16.24c-1,0-1.37-.76-1.37-1.69V93.83h2.33ZM140.77,103H142V87.93h-1.26Zm-4.87-4.54c0,1.11-.06,3.7-3,3.7-1.16,0-2.13-.5-2.13-1.85,0-2.25,2.61-2.47,4.8-2.47h.36ZM136,103h1.24a14.57,14.57,0,0,1-.1-2.15V96.33c0-2.68-1.06-3.82-3.6-3.82a8.09,8.09,0,0,0-3,.7v1.23a5.38,5.38,0,0,1,3-.85c1.71,0,2.33.89,2.33,2.64v.52h-.24c-2.65,0-6.3.16-6.3,3.59,0,.93.46,2.89,3.37,2.89a3.6,3.6,0,0,0,3.25-1.88H136Zm-16.92-4.54c0,1.11-.06,3.7-3,3.7-1.17,0-2.13-.5-2.13-1.85,0-2.25,2.61-2.47,4.8-2.47h.36Zm.12,4.54h1.25a14.57,14.57,0,0,1-.1-2.15V96.33c0-2.68-1.07-3.82-3.6-3.82a8.09,8.09,0,0,0-3,.7v1.23a5.38,5.38,0,0,1,3-.85c1.71,0,2.33.89,2.33,2.64v.52h-.24c-2.65,0-6.31.16-6.31,3.59,0,.93.46,2.89,3.38,2.89a3.6,3.6,0,0,0,3.25-1.88h0Zm-8.74-10.24h-2.33V89.84l-1.26.44v2.47h-2v1.08h2v6c0,1.87.08,3.41,2.33,3.41a4.6,4.6,0,0,0,1.54-.28l-.08-1a2.92,2.92,0,0,1-1.16.24c-1,0-1.37-.76-1.37-1.69V93.83h2.33ZM98.8,103h1.27V97.93c0-1.85.54-4.1,2.55-4.1a3.31,3.31,0,0,1,.92.12V92.63a3.74,3.74,0,0,0-.88-.12A3,3,0,0,0,100,94.72h0v-2H98.72A18.42,18.42,0,0,1,98.8,95Zm-10-5.84c0-1.69,1.14-3.56,3-3.56s2.61,1.77,2.61,3.56Zm6.25,4.24a6.64,6.64,0,0,1-2.87.76c-2.21,0-3.38-1.75-3.38-3.92h7v-.64c0-2.75-1.18-5.08-4.08-5.08-2.59,0-4.32,2.23-4.32,5.36s1.27,5.36,4.66,5.36a8.47,8.47,0,0,0,3-.56ZM84.4,88.33H83.14V90H84.4ZM83.14,103H84.4V92.75H83.14ZM78.6,97.87c0,2-.63,4.28-3,4.28-2.25,0-3-2.41-3-4.28s.72-4.28,3-4.28,3,2.29,3,4.28M71.26,103h1.27v-1.62h0a3.28,3.28,0,0,0,3.19,1.86c2.82,0,4.22-2.33,4.22-5.36s-1.2-5.36-4.22-5.36a3.44,3.44,0,0,0-3.19,2h0V87.93H71.26Zm-4.74-4.54c0,1.11-.06,3.7-3,3.7-1.17,0-2.13-.5-2.13-1.85,0-2.25,2.61-2.47,4.8-2.47h.36Zm.12,4.54h1.25a14.57,14.57,0,0,1-.1-2.15V96.33c0-2.68-1.07-3.82-3.6-3.82a8.13,8.13,0,0,0-3,.7v1.23a5.38,5.38,0,0,1,3-.85c1.71,0,2.33.89,2.33,2.64v.52h-.24c-2.65,0-6.3.16-6.3,3.59,0,.93.46,2.89,3.37,2.89a3.62,3.62,0,0,0,3.26-1.88h0ZM49.73,98.45c0,1.11-.06,3.7-3,3.7-1.17,0-2.13-.5-2.13-1.85,0-2.25,2.61-2.47,4.8-2.47h.36Zm.12,4.54H51.1a14.57,14.57,0,0,1-.1-2.15V96.33c0-2.68-1.07-3.82-3.6-3.82a8.09,8.09,0,0,0-3,.7v1.23a5.38,5.38,0,0,1,3-.85c1.71,0,2.33.89,2.33,2.64v.52h-.24c-2.65,0-6.31.16-6.31,3.59,0,.93.47,2.89,3.38,2.89a3.6,3.6,0,0,0,3.25-1.88h0Zm-15.18-.24a7.7,7.7,0,0,0,2.87.48c1.55,0,3.57-.74,3.57-2.91,0-3.35-5-3.11-5-5,0-1.3.91-1.71,2.21-1.71a5.83,5.83,0,0,1,2.27.49L40.67,93a8.09,8.09,0,0,0-2.53-.46c-1.69,0-3.33.76-3.33,2.79,0,3,4.92,2.59,4.92,5,0,1.17-1.07,1.83-2.27,1.83a6,6,0,0,1-2.67-.64Zm-4-4.3c0,1.11-.06,3.7-3,3.7-1.17,0-2.13-.5-2.13-1.85,0-2.25,2.61-2.47,4.8-2.47h.36Zm.12,4.54h1.24a16.17,16.17,0,0,1-.09-2.15V96.33c0-2.68-1.07-3.82-3.6-3.82a8,8,0,0,0-3,.7v1.23a5.36,5.36,0,0,1,3-.85c1.71,0,2.33.89,2.33,2.64v.52h-.24c-2.65,0-6.31.16-6.31,3.59,0,.93.46,2.89,3.38,2.89a3.6,3.6,0,0,0,3.25-1.88h0Zm-10-13.74a9.18,9.18,0,0,0-3.22-.52c-4.34,0-7.07,3-7.07,7.25s2.65,7.25,7.07,7.25a7.63,7.63,0,0,0,3.22-.6l-.08-1.2a7,7,0,0,1-3.14.6c-3.69,0-5.68-2.51-5.68-6s2.05-6,5.68-6a7.33,7.33,0,0,1,3.14.6Z" transform="translate(-10.52 -12.78)"/><path class="cls-1" d="M210.14,27.85h2.62V12.78h-2.7v5.93h0a3.65,3.65,0,0,0-3.09-1.45c-3.17,0-4.34,2.53-4.34,5.38s1.17,5.45,4.34,5.45a3.81,3.81,0,0,0,3.17-1.41h0Zm-4.74-5.21c0-1.38.49-3.29,2.23-3.29S210,21.2,210,22.64,209.46,26,207.67,26s-2.27-1.93-2.27-3.36m-12,2.21c0-1.58,1.79-1.78,3-1.78h1.17A3.46,3.46,0,0,1,197,25.2a2.29,2.29,0,0,1-1.89.92c-1,0-1.71-.38-1.71-1.27M192,20.35a5.4,5.4,0,0,1,3.19-1.12c1.59,0,2.33.56,2.33,2.23h-1.49a8.21,8.21,0,0,0-3.47.6,3,3,0,0,0-1.77,3c0,2,1.79,3.07,3.62,3.07a3.68,3.68,0,0,0,3.19-1.79h0a12.84,12.84,0,0,0,.12,1.55h2.37c-.06-.81-.1-1.53-.12-2.31S200,24,200,23V21.62c0-3.05-1.3-4.36-4.46-4.36a9.36,9.36,0,0,0-3.6.78Zm-6.53,7.5h2.61V12.78h-2.69v5.93h0a3.68,3.68,0,0,0-3.1-1.45c-3.17,0-4.34,2.53-4.34,5.38s1.17,5.45,4.34,5.45a3.84,3.84,0,0,0,3.18-1.41h0Zm-4.74-5.21c0-1.38.48-3.29,2.23-3.29s2.41,1.85,2.41,3.29S184.81,26,183,26s-2.27-1.93-2.27-3.36m-8.28-7h2.69V13h-2.69Zm0,12.24h2.69V17.5h-2.69Zm-3.25-10.21a12.53,12.53,0,0,0-2.94-.38c-2.1,0-4,1-4,3.21,0,3.74,4.68,2.36,4.68,4.38,0,1-1.09,1.27-1.77,1.27a5.93,5.93,0,0,1-2.65-.68l-.16,2.21a12.08,12.08,0,0,0,3,.44c2.19,0,4.34-1,4.34-3.38,0-3.73-4.68-2.69-4.68-4.34,0-.88.86-1.14,1.59-1.14a6.67,6.67,0,0,1,2.41.44ZM154.54,27.85h2.7v-3.8c0-1.49,0-4.22,2.19-4.22a2.73,2.73,0,0,1,1.2.22V17.34a2.93,2.93,0,0,0-.82-.08A3.17,3.17,0,0,0,157,19.85h0V17.5h-2.39ZM151,25.08a7,7,0,0,1-3.44,1,2.7,2.7,0,0,1-2.95-2.61h7.15c0-3.62-1.08-6.25-4.92-6.25-3.21,0-4.8,2.47-4.8,5.46,0,3.4,2,5.37,5.4,5.37a7,7,0,0,0,3.56-.83Zm-6.39-3.42A2.34,2.34,0,0,1,147,19.23c1.51,0,2.11,1.12,2.19,2.43Zm-11,6.19h3l3.81-10.35h-2.69L135.3,25h0l-2.57-7.54H129.8Zm-8.82-12.24h2.7V13h-2.7Zm0,12.24h2.7V17.5h-2.7Zm-12.93,0h2.69V22.79c0-1.33.42-3.44,2.37-3.44,1.73,0,1.75,1.71,1.75,3v5.53h2.69V21.32c0-2.33-1.06-4.06-3.52-4.06a3.85,3.85,0,0,0-3.39,1.65h0V17.5h-2.55Zm-15-5.06c0,3.75,2.13,5.3,5.73,5.3s5.72-1.55,5.72-5.3v-9h-2.81v8.09c0,2.39-.76,4-2.91,4s-2.91-1.57-2.91-4V13.83H96.91Z" transform="translate(-10.52 -12.78)"/><path class="cls-1" d="M206,70c0-1.59,1.78-1.79,3-1.79h1.16a3.44,3.44,0,0,1-.56,2.13,2.28,2.28,0,0,1-1.89.92c-1,0-1.7-.38-1.7-1.26m-1.37-4.5a5.36,5.36,0,0,1,3.19-1.13c1.59,0,2.33.57,2.33,2.23h-1.48a8.11,8.11,0,0,0-3.48.61,3,3,0,0,0-1.77,3c0,2,1.79,3.07,3.62,3.07a3.67,3.67,0,0,0,3.19-1.79h.05a9.56,9.56,0,0,0,.12,1.55h2.37c-.06-.8-.11-1.53-.13-2.31s0-1.55,0-2.59V66.78c0-3.05-1.31-4.36-4.46-4.36a9.33,9.33,0,0,0-3.6.79ZM191.2,73h2.69V68c0-1.33.43-3.44,2.37-3.44,1.73,0,1.75,1.71,1.75,3V73h2.69V66.48c0-2.33-1.06-4.06-3.51-4.06a3.89,3.89,0,0,0-3.4,1.65h0v-1.4H191.2Zm-9.86-3c0-1.59,1.79-1.79,3-1.79h1.17a3.44,3.44,0,0,1-.56,2.13,2.31,2.31,0,0,1-1.89.92c-1,0-1.71-.38-1.71-1.26M180,65.52a5.39,5.39,0,0,1,3.2-1.13c1.58,0,2.33.57,2.33,2.23H184a8.06,8.06,0,0,0-3.47.61,3,3,0,0,0-1.77,3c0,2,1.79,3.07,3.62,3.07a3.68,3.68,0,0,0,3.19-1.79h0a12.55,12.55,0,0,0,.12,1.55h2.37c-.06-.8-.1-1.53-.12-2.31s0-1.55,0-2.59V66.78c0-3.05-1.31-4.36-4.46-4.36a9.33,9.33,0,0,0-3.6.79ZM171.9,69.9a3,3,0,0,0,3.27,3.35,7.08,7.08,0,0,0,2-.24l-.08-2.13a2.39,2.39,0,0,1-1.22.28c-1,0-1.27-.82-1.27-1.7V64.64H177v-2h-2.39V59.73l-2.69.87v2.07h-2v2h2Zm-7-9.12h2.69V58.21h-2.69Zm0,12.23h2.69V62.67h-2.69Zm-6.19,0h2.7V58h-2.7Zm-10.79-5.42c0-1.55.85-3.08,2.6-3.08s2.61,1.49,2.61,3.08-.55,3.57-2.61,3.57-2.6-1.87-2.6-3.57m-2.81.32a5.42,5.42,0,0,0,10.83,0,5.42,5.42,0,1,0-10.83,0M138,64.51c1.75,0,2.23,1.91,2.23,3.3s-.5,3.35-2.27,3.35-2.37-1.89-2.37-3.35.68-3.3,2.41-3.3m-5.12,12.72h2.69v-5.4h0a3.55,3.55,0,0,0,3,1.42c3.24,0,4.4-2.61,4.4-5.44s-1.16-5.39-4.33-5.39a3.53,3.53,0,0,0-3.22,1.71h0V62.67h-2.57Zm-10.72-9.64c0-1.55.84-3.08,2.58-3.08s2.62,1.49,2.62,3.08-.55,3.57-2.62,3.57-2.58-1.87-2.58-3.57m-2.82.32a5.42,5.42,0,0,0,10.83,0,5.42,5.42,0,1,0-10.83,0M112,73h2.69v-3.8c0-1.48,0-4.21,2.19-4.21a2.73,2.73,0,0,1,1.2.22V62.5a2.93,2.93,0,0,0-.82-.08,3.16,3.16,0,0,0-2.83,2.6h0V62.67H112Zm-7.59-3.11a3,3,0,0,0,3.27,3.35,7.18,7.18,0,0,0,2-.24l-.08-2.13a2.43,2.43,0,0,1-1.23.28c-1,0-1.26-.82-1.26-1.7V64.64h2.39v-2h-2.39V59.73l-2.69.87v2.07h-2v2h2Zm-4.37.34a7,7,0,0,1-3.43,1,2.7,2.7,0,0,1-2.95-2.61h7.15c0-3.61-1.09-6.25-4.92-6.25-3.22,0-4.8,2.48-4.8,5.47,0,3.39,2,5.36,5.4,5.36a7.09,7.09,0,0,0,3.55-.82Zm-6.38-3.42a2.34,2.34,0,0,1,2.39-2.43c1.5,0,2.11,1.13,2.19,2.43ZM72.44,73h2.7V61.48l0,0L79,73h2.7l3.77-11.57h0V73h2.69V59h-4.5L80.32,69.62h0L76.94,59h-4.5Z" transform="translate(-10.52 -12.78)"/><path class="cls-1" d="M206,47.1c0-1.59,1.78-1.79,3-1.79h1.16a3.43,3.43,0,0,1-.56,2.13,2.29,2.29,0,0,1-1.89.93c-1,0-1.7-.38-1.7-1.27m-1.37-4.5a5.42,5.42,0,0,1,3.19-1.12c1.59,0,2.33.56,2.33,2.23h-1.48a8.25,8.25,0,0,0-3.48.6,3,3,0,0,0-1.76,2.95c0,2,1.78,3.07,3.61,3.07a3.71,3.71,0,0,0,3.2-1.78h0a9.53,9.53,0,0,0,.12,1.54h2.37c-.06-.8-.11-1.52-.13-2.3s0-1.55,0-2.6V43.87c0-3.06-1.31-4.36-4.46-4.36a9.32,9.32,0,0,0-3.6.78Zm-19,7.49h2.69v-5c0-1.34.22-3.47,2-3.47,1.54,0,1.54,1.36,1.54,2.33v6.16h2.7v-5c0-1.34.22-3.47,2-3.47,1.54,0,1.54,1.36,1.54,2.33v6.16h2.7V43.57c0-2.31-.73-4.06-3.28-4.06a3.56,3.56,0,0,0-3.24,1.83,3,3,0,0,0-3.05-1.83,3.63,3.63,0,0,0-3.07,1.69h0V39.75h-2.51Zm-10.69-5.42c0-1.54.85-3.07,2.59-3.07s2.62,1.48,2.62,3.07-.55,3.58-2.62,3.58-2.59-1.87-2.59-3.58m-2.81.32a5.42,5.42,0,0,0,10.83,0,5.42,5.42,0,1,0-10.83,0m-12.21,5.1h2.69V45c0-1.32.42-3.43,2.37-3.43,1.73,0,1.75,1.71,1.75,3v5.52h2.69V43.57c0-2.33-1.07-4.06-3.52-4.06a3.85,3.85,0,0,0-3.39,1.65h0V39.75h-2.55Zm-10.73-5.42c0-1.54.84-3.07,2.59-3.07s2.61,1.48,2.61,3.07-.54,3.58-2.61,3.58-2.59-1.87-2.59-3.58m-2.81.32a5.42,5.42,0,0,0,10.83,0,5.42,5.42,0,1,0-10.83,0m3.94-6.65h1.66l2.76-2.93h-2.76ZM139.46,47a3,3,0,0,0,3.27,3.35,6.73,6.73,0,0,0,2-.24L144.64,48a2.39,2.39,0,0,1-1.22.28c-1,0-1.27-.83-1.27-1.71V41.72h2.39v-2h-2.39V36.82l-2.69.86v2.07h-2v2h2Zm-4.26-7.23h-2.69v5.06c0,1.33-.42,3.44-2.37,3.44-1.73,0-1.75-1.71-1.75-3V39.75H125.7v6.53c0,2.33,1.06,4,3.51,4a4.32,4.32,0,0,0,3.4-1.64h0v1.4h2.55ZM109.39,50.09h2.91l1.23-3.21h5.68l1.21,3.21h3.11l-5.5-14h-3.18Zm9-5.42h-4.1l2-5.78h0Z" transform="translate(-10.52 -12.78)"/><path class="cls-2" d="M369,96.89c0-2.31,1.4-4.56,3.81-4.56s3.79,2.25,3.79,4.56-1.17,4.55-3.79,4.55S369,99.06,369,96.89m-2.39,0a6.19,6.19,0,1,0,12.38,0,6.19,6.19,0,1,0-12.38,0M364.08,91a8.47,8.47,0,0,0-2.72-.48,6,6,0,0,0-6.2,6.37,6.15,6.15,0,0,0,6.2,6.36,6.81,6.81,0,0,0,2.81-.5l-.16-2a4.75,4.75,0,0,1-2.41.69c-2.89,0-4.06-2.38-4.06-4.55s1.41-4.56,3.92-4.56a6.48,6.48,0,0,1,2.43.53Zm-15,12h2.24V85.09h-2.24Zm-7-4.72a3.07,3.07,0,0,1-3.38,3.19,2.14,2.14,0,0,1-2.27-2c0-2.14,3-2.33,4.22-2.33.48,0,1,0,1.43,0Zm-6.53-4.68a5.73,5.73,0,0,1,3.53-1.24c2.24,0,3,1.08,3,3.17-.88,0-1.5,0-2.38,0-2.31,0-5.65,1-5.65,4,0,2.65,1.83,3.79,4.46,3.79a4.49,4.49,0,0,0,3.76-1.86h.05V103h2.1a18.4,18.4,0,0,1-.1-2.39v-5c0-3.31-1.4-5-4.89-5a7.73,7.73,0,0,0-4,1.15ZM321.33,103h9.87v-1.81h-7.27l7-8.4v-2h-9.28v1.81h6.68l-7,8.39Zm-2.65-12.16h-3.22V87.28l-2.24.72v2.81h-2.74v1.81h2.74v7.1c0,2.44,1.43,3.53,3.75,3.53a7.13,7.13,0,0,0,1.9-.33V101a2.7,2.7,0,0,1-1.52.43,1.93,1.93,0,0,1-1.89-2.17V92.62h3.22Zm-20.17,6.08c0-2.31,1.41-4.56,3.82-4.56s3.79,2.25,3.79,4.56-1.17,4.55-3.79,4.55-3.82-2.38-3.82-4.55m-2.38,0a6.19,6.19,0,1,0,12.37,0,6.19,6.19,0,1,0-12.37,0m-5.29,0c0,1.91-1,4.6-3.36,4.6s-3.58-2.5-3.58-4.53c0-2.26,1.17-4.58,3.6-4.58s3.38,2.32,3.34,4.51M281.66,108h2.24V101.3H284a4.34,4.34,0,0,0,4.05,2c3.67,0,5.22-3.24,5.22-6.58s-1.72-6.15-5.25-6.15a4.86,4.86,0,0,0-4.12,2h-.05V90.81h-2.14Zm-6.75-9.72a3.07,3.07,0,0,1-3.39,3.19,2.14,2.14,0,0,1-2.26-2c0-2.14,3-2.33,4.22-2.33.48,0,.95,0,1.43,0Zm-6.53-4.68a5.71,5.71,0,0,1,3.53-1.24c2.24,0,3,1.08,3,3.17-.88,0-1.5,0-2.38,0-2.32,0-5.65,1-5.65,4,0,2.65,1.83,3.79,4.45,3.79a4.51,4.51,0,0,0,3.77-1.86h0V103h2.1a18.4,18.4,0,0,1-.1-2.39v-5c0-3.31-1.41-5-4.89-5a7.7,7.7,0,0,0-4,1.15ZM264.3,91a8.42,8.42,0,0,0-2.72-.48,6,6,0,0,0-6.2,6.37,6.15,6.15,0,0,0,6.2,6.36,6.85,6.85,0,0,0,2.82-.5l-.17-2a4.72,4.72,0,0,1-2.41.69c-2.88,0-4.05-2.38-4.05-4.55s1.41-4.56,3.91-4.56a6.48,6.48,0,0,1,2.43.53Zm-21.43,12h9.87v-1.81h-7.27l7-8.4v-2H243.2v1.81h6.68l-7,8.39Zm-7.08-6.15h-6.63l3.31-8.25ZM224.2,103h2.5l1.7-4.2h8.15l1.69,4.2h2.6l-7-16.64H231.3Z" transform="translate(-10.52 -12.78)"/><path class="cls-3" d="M225.51,72.94h21.1L263.5,35.39l3.21,7L252.63,72.94h21l3.49-7.63.12.32a12.29,12.29,0,0,0,11.23,7.22l24.63.09h0a12.33,12.33,0,0,0,11.28-7.27l.16-.32L328,72.94h21S341.52,57,334.86,42.53l3.21-7.1L355,72.94h21.1L349,12.88H327.28l-3,6.66a11.66,11.66,0,0,0-10.55-6.66H287.85a11.68,11.68,0,0,0-10.55,6.66h0l-3-6.66H252.55ZM314,42.21,306.38,59a6.07,6.07,0,0,1-5.57,3.57A6.2,6.2,0,0,1,295.15,59l-7.58-16.77,7.7-17a6.07,6.07,0,0,1,11,0Z" transform="translate(-10.52 -12.78)"/><path class="cls-4" d="M322.91,61.86l-1.2,2.65a9.47,9.47,0,0,1-8.63,5.54c-3.69,0-24.63-.08-24.63-.08a9.38,9.38,0,0,1-8.58-5.54Q268.79,40.11,257.8,15.77h14.6l20.14,44.41a9,9,0,0,0,16.49,0l6.58-14.48Zm20.9-46.09L333.26,39.08c-3.05-6.58-5.78-12.48-7.38-16l3.29-7.26Z" transform="translate(-10.52 -12.78)"/></svg>